<svg xmlns="http://www.w3.org/2000/svg" width="1000" height="1000" viewBox="0 0 1000 1000" class="ta-light ta-aurora" role="img" aria-labelledby="titel-aura-aurora-10--title titel-aura-aurora-10--desc"><title id="titel-aura-aurora-10--title">Aurora · 10 Titel · Unvergänglich</title><desc id="titel-aura-aurora-10--desc">Die volle Lichtkomposition: weite Strahlung, zwei bewegte Tiefenebenen und sparsame brillante Reflexe. Transparenter Lichtschein für die Ebene hinter Insignium und Avatar.</desc><defs>
      <radialGradient id="titel-aura-aurora-10--bloom" gradientUnits="userSpaceOnUse" cx="500" cy="500" r="472"><stop offset="0" stop-color="#ffd69a" stop-opacity="0"/><stop offset="0.3" stop-color="#ffd69a" stop-opacity="0"/><stop offset="0.4" stop-color="#ffd486" stop-opacity="0.04"/><stop offset="0.6" stop-color="#f5bc57" stop-opacity="0.34"/><stop offset="0.73" stop-color="#f3c570" stop-opacity="0.26"/><stop offset="0.88" stop-color="#cfa14e" stop-opacity="0.08499999999999999"/><stop offset="1" stop-color="#d4aa62" stop-opacity="0"/></radialGradient>
      <radialGradient id="titel-aura-aurora-10--hot" gradientUnits="userSpaceOnUse" cx="500" cy="500" r="445"><stop offset="0" stop-color="#fff3d3" stop-opacity="0"/><stop offset="0.37" stop-color="#fff0c7" stop-opacity="0"/><stop offset="0.5" stop-color="#fff0ce" stop-opacity="0.23"/><stop offset="0.57" stop-color="#f7d997" stop-opacity="0.38"/><stop offset="0.65" stop-color="#efc275" stop-opacity="0.08"/><stop offset="0.83" stop-color="#d7ae67" stop-opacity="0"/></radialGradient>
      <radialGradient id="titel-aura-aurora-10--beam" gradientUnits="userSpaceOnUse" cx="500" cy="500" r="452"><stop offset="0" stop-color="#fff1ca" stop-opacity="0"/><stop offset="0.36" stop-color="#fff2d4" stop-opacity="0"/><stop offset="0.49" stop-color="#ffedc0" stop-opacity="0.41000000000000003"/><stop offset="0.65" stop-color="#eaca85" stop-opacity="0.5"/><stop offset="0.84" stop-color="#d7b072" stop-opacity="0.14"/><stop offset="1" stop-color="#be924d" stop-opacity="0"/></radialGradient>
      <radialGradient id="titel-aura-aurora-10--thread" gradientUnits="userSpaceOnUse" cx="500" cy="500" r="465"><stop offset="0.25" stop-color="#fff4d6" stop-opacity="0"/><stop offset="0.49" stop-color="#fff3d4" stop-opacity="0.12"/><stop offset="0.65" stop-color="#ffe4a6" stop-opacity="0.48000000000000004"/><stop offset="0.88" stop-color="#dbba7a" stop-opacity="0.08"/><stop offset="1" stop-color="#cab181" stop-opacity="0"/></radialGradient>
      <linearGradient id="titel-aura-aurora-10--arc" x1="0" y1="0" x2="1" y2=".8"><stop stop-color="#f8dd9e" stop-opacity="0"/><stop offset=".22" stop-color="#fce8b7" stop-opacity=".15"/><stop offset=".5" stop-color="#fff4d3" stop-opacity=".7"/><stop offset=".72" stop-color="#dfb771" stop-opacity=".22"/><stop offset="1" stop-color="#dcb875" stop-opacity="0"/></linearGradient>
      <linearGradient id="titel-aura-aurora-10--veil" x1=".1" y1=".1" x2=".9" y2=".9"><stop stop-color="#fce5b5" stop-opacity="0"/><stop offset=".28" stop-color="#f5d797" stop-opacity=".65"/><stop offset=".55" stop-color="#f4ce81" stop-opacity=".38"/><stop offset=".8" stop-color="#cfb788" stop-opacity=".18"/><stop offset="1" stop-color="#d4b583" stop-opacity="0"/></linearGradient>
      <radialGradient id="titel-aura-aurora-10--point"><stop stop-color="#fffae5"/><stop offset=".14" stop-color="#ffe7ae" stop-opacity=".8"/><stop offset=".4" stop-color="#f4cd83" stop-opacity=".3"/><stop offset="1" stop-color="#edc079" stop-opacity="0"/></radialGradient>
      <filter id="titel-aura-aurora-10--soft" x="-45%" y="-45%" width="190%" height="190%" color-interpolation-filters="sRGB"><feGaussianBlur stdDeviation="8"/></filter>
      <filter id="titel-aura-aurora-10--haze" x="-45%" y="-45%" width="190%" height="190%" color-interpolation-filters="sRGB"><feGaussianBlur stdDeviation="18"/></filter>
      <filter id="titel-aura-aurora-10--edge" x="-40%" y="-40%" width="180%" height="180%" color-interpolation-filters="sRGB"><feGaussianBlur stdDeviation="2.2"/></filter>
      <mask id="titel-aura-aurora-10--outside" maskUnits="userSpaceOnUse" x="0" y="0" width="1000" height="1000"><rect width="1000" height="1000" fill="white"/><circle cx="500" cy="500" r="184" fill="black"/></mask>
    </defs><g mask="url(#titel-aura-aurora-10--outside)"><g class="ta-bloom"><circle cx="500" cy="500" r="472" fill="url(#titel-aura-aurora-10--bloom)"/><circle cx="500" cy="500" r="445" fill="url(#titel-aura-aurora-10--hot)"/></g><g class="ta-rays"><g transform="rotate(10 500 500)"><path d="M214 540 C231.16000000000003 274.06 602.96 128.2 757.4000000000001 437.08 C797.44 640.14 585.8 774.56 359.86 683.04" fill="none" stroke="url(#titel-aura-aurora-10--veil)" stroke-width="37" filter="url(#titel-aura-aurora-10--haze)" opacity="0.49"/><path d="M214 540 C231.16000000000003 274.06 602.96 128.2 757.4000000000001 437.08 C797.44 640.14 585.8 774.56 359.86 683.04" fill="none" stroke="url(#titel-aura-aurora-10--veil)" stroke-width="5.6" filter="url(#titel-aura-aurora-10--edge)" opacity="0.52"/></g><g transform="rotate(77 500 500)"><path d="M202.12 540 C219.99280000000005 264.6748 607.2368 112.75599999999997 768.092 434.4664 C809.7952 645.9612 589.364 785.9648 354.03880000000004 690.6432" fill="none" stroke="url(#titel-aura-aurora-10--veil)" stroke-width="37" filter="url(#titel-aura-aurora-10--haze)" opacity="0.49"/><path d="M202.12 540 C219.99280000000005 264.6748 607.2368 112.75599999999997 768.092 434.4664 C809.7952 645.9612 589.364 785.9648 354.03880000000004 690.6432" fill="none" stroke="url(#titel-aura-aurora-10--veil)" stroke-width="5.6" filter="url(#titel-aura-aurora-10--edge)" opacity="0.52"/></g><g transform="rotate(144 500 500)"><path d="M190.23999999999995 540 C208.82559999999995 255.28959999999995 611.5136 97.3119999999999 778.7840000000001 431.8528 C822.1504 651.7824 592.928 797.3696 348.21759999999995 698.2464" fill="none" stroke="url(#titel-aura-aurora-10--veil)" stroke-width="37" filter="url(#titel-aura-aurora-10--haze)" opacity="0.49"/><path d="M190.23999999999995 540 C208.82559999999995 255.28959999999995 611.5136 97.3119999999999 778.7840000000001 431.8528 C822.1504 651.7824 592.928 797.3696 348.21759999999995 698.2464" fill="none" stroke="url(#titel-aura-aurora-10--veil)" stroke-width="5.6" filter="url(#titel-aura-aurora-10--edge)" opacity="0.52"/></g><g transform="rotate(211 500 500)"><path d="M178.36 540 C197.65840000000003 245.9044 615.7904 81.868 789.476 429.2392 C834.5056 657.6036 596.492 808.7744 342.39639999999997 705.8496" fill="none" stroke="url(#titel-aura-aurora-10--veil)" stroke-width="37" filter="url(#titel-aura-aurora-10--haze)" opacity="0.49"/><path d="M178.36 540 C197.65840000000003 245.9044 615.7904 81.868 789.476 429.2392 C834.5056 657.6036 596.492 808.7744 342.39639999999997 705.8496" fill="none" stroke="url(#titel-aura-aurora-10--veil)" stroke-width="5.6" filter="url(#titel-aura-aurora-10--edge)" opacity="0.52"/></g><g transform="rotate(278 500 500)"><path d="M166.48000000000002 540 C186.49120000000005 236.5192 620.0672 66.42400000000004 800.168 426.6256 C846.8607999999999 663.4248 600.056 820.1792 336.5752 713.4528" fill="none" stroke="url(#titel-aura-aurora-10--veil)" stroke-width="37" filter="url(#titel-aura-aurora-10--haze)" opacity="0.49"/><path d="M166.48000000000002 540 C186.49120000000005 236.5192 620.0672 66.42400000000004 800.168 426.6256 C846.8607999999999 663.4248 600.056 820.1792 336.5752 713.4528" fill="none" stroke="url(#titel-aura-aurora-10--veil)" stroke-width="5.6" filter="url(#titel-aura-aurora-10--edge)" opacity="0.52"/></g><g transform="rotate(345 500 500)"><path d="M154.59999999999997 540 C175.324 227.13399999999996 624.344 50.97999999999996 810.86 424.012 C859.2160000000001 669.246 603.62 831.5840000000001 330.754 721.056" fill="none" stroke="url(#titel-aura-aurora-10--veil)" stroke-width="37" filter="url(#titel-aura-aurora-10--haze)" opacity="0.49"/><path d="M154.59999999999997 540 C175.324 227.13399999999996 624.344 50.97999999999996 810.86 424.012 C859.2160000000001 669.246 603.62 831.5840000000001 330.754 721.056" fill="none" stroke="url(#titel-aura-aurora-10--veil)" stroke-width="5.6" filter="url(#titel-aura-aurora-10--edge)" opacity="0.52"/></g><g transform="rotate(412 500 500)"><path d="M142.71999999999997 540 C164.15679999999998 217.74879999999996 628.6208 35.535999999999945 821.552 421.3984 C871.5712000000001 675.0672 607.184 842.9888000000001 324.9328 728.6592" fill="none" stroke="url(#titel-aura-aurora-10--veil)" stroke-width="37" filter="url(#titel-aura-aurora-10--haze)" opacity="0.49"/><path d="M142.71999999999997 540 C164.15679999999998 217.74879999999996 628.6208 35.535999999999945 821.552 421.3984 C871.5712000000001 675.0672 607.184 842.9888000000001 324.9328 728.6592" fill="none" stroke="url(#titel-aura-aurora-10--veil)" stroke-width="5.6" filter="url(#titel-aura-aurora-10--edge)" opacity="0.52"/></g><g transform="rotate(479 500 500)"><path d="M130.84000000000003 540 C152.98960000000005 208.36360000000002 632.8976 20.09200000000004 832.2439999999999 418.7848 C883.9264000000001 680.8884 610.748 854.3935999999999 319.1116 736.2624" fill="none" stroke="url(#titel-aura-aurora-10--veil)" stroke-width="37" filter="url(#titel-aura-aurora-10--haze)" opacity="0.49"/><path d="M130.84000000000003 540 C152.98960000000005 208.36360000000002 632.8976 20.09200000000004 832.2439999999999 418.7848 C883.9264000000001 680.8884 610.748 854.3935999999999 319.1116 736.2624" fill="none" stroke="url(#titel-aura-aurora-10--veil)" stroke-width="5.6" filter="url(#titel-aura-aurora-10--edge)" opacity="0.52"/></g></g><g class="ta-counter"><ellipse cx="500" cy="500" rx="356.4" ry="303.6" transform="rotate(-28 500 500)" fill="none" stroke="url(#titel-aura-aurora-10--arc)" stroke-width="1.4" opacity=".38"/></g><circle class="ta-wave" cx="500" cy="500" r="338.8" fill="none" stroke="url(#titel-aura-aurora-10--arc)" stroke-width="2.5" filter="url(#titel-aura-aurora-10--edge)" opacity=".19"/><g class="ta-dust"><g class="ta-speck" style="--ta-delay:-0.35s;--ta-speed:4.47s"><circle cx="607.14" cy="105.69" r="10.41" fill="url(#titel-aura-aurora-10--point)" opacity=".35"/><circle cx="607.14" cy="105.69" r="1.3" fill="#f5dda4" opacity="0.62"/></g><g class="ta-speck" style="--ta-delay:-0.99s;--ta-speed:6.94s"><circle cx="398.66" cy="815.25" r="4.88" fill="url(#titel-aura-aurora-10--point)" opacity=".35"/><circle cx="398.66" cy="815.25" r="0.61" fill="#f5dda4" opacity="0.48"/></g><g class="ta-speck" style="--ta-delay:-3.16s;--ta-speed:7.42s"><circle cx="41.82" cy="463.86" r="8.91" fill="url(#titel-aura-aurora-10--point)" opacity=".35"/><circle cx="41.82" cy="463.86" r="1.11" fill="#f5dda4" opacity="0.42"/></g><g class="ta-speck" style="--ta-delay:-3.79s;--ta-speed:5.95s"><circle cx="882.08" cy="634.95" r="8.82" fill="url(#titel-aura-aurora-10--point)" opacity=".35"/><circle cx="882.08" cy="634.95" r="1.1" fill="#f5dda4" opacity="0.6"/></g><g class="ta-speck" style="--ta-delay:-1.56s;--ta-speed:5.38s"><circle cx="450.87" cy="198.95" r="4.93" fill="url(#titel-aura-aurora-10--point)" opacity=".35"/><circle cx="450.87" cy="198.95" r="0.62" fill="#f5dda4" opacity="0.26"/></g><g class="ta-speck" style="--ta-delay:-5.5s;--ta-speed:7.16s"><circle cx="144.48" cy="686.17" r="10.52" fill="url(#titel-aura-aurora-10--point)" opacity=".35"/><circle cx="144.48" cy="686.17" r="1.32" fill="#f5dda4" opacity="0.43"/></g><g class="ta-speck" style="--ta-delay:-6.28s;--ta-speed:3.78s"><circle cx="521.97" cy="815.01" r="7.77" fill="url(#titel-aura-aurora-10--point)" opacity=".35"/><circle cx="521.97" cy="815.01" r="0.97" fill="#f5dda4" opacity="0.62"/></g><g class="ta-speck" style="--ta-delay:-3.92s;--ta-speed:5.45s"><circle cx="174.37" cy="399.23" r="7.52" fill="url(#titel-aura-aurora-10--point)" opacity=".35"/><circle cx="174.37" cy="399.23" r="0.94" fill="#f5dda4" opacity="0.51"/></g><g class="ta-speck" style="--ta-delay:-3.01s;--ta-speed:7.42s"><circle cx="766.61" cy="439.57" r="6.48" fill="url(#titel-aura-aurora-10--point)" opacity=".35"/><circle cx="766.61" cy="439.57" r="0.81" fill="#f5dda4" opacity="0.43"/></g><g class="ta-speck" style="--ta-delay:-5.86s;--ta-speed:6.33s"><circle cx="63.76" cy="583.09" r="11" fill="url(#titel-aura-aurora-10--point)" opacity=".35"/><circle cx="63.76" cy="583.09" r="1.38" fill="#f5dda4" opacity="0.47"/></g><g class="ta-speck" style="--ta-delay:-0.45s;--ta-speed:5.5s"><circle cx="791.24" cy="313.07" r="9.44" fill="url(#titel-aura-aurora-10--point)" opacity=".35"/><circle cx="791.24" cy="313.07" r="1.18" fill="#f5dda4" opacity="0.54"/></g><g class="ta-speck" style="--ta-delay:-3.13s;--ta-speed:5.9s"><circle cx="737.98" cy="755.24" r="6.21" fill="url(#titel-aura-aurora-10--point)" opacity=".35"/><circle cx="737.98" cy="755.24" r="0.78" fill="#f5dda4" opacity="0.47"/></g><g class="ta-speck" style="--ta-delay:-6.28s;--ta-speed:6.6s"><circle cx="623.8" cy="784.11" r="11.41" fill="url(#titel-aura-aurora-10--point)" opacity=".35"/><circle cx="623.8" cy="784.11" r="1.43" fill="#f5dda4" opacity="0.25"/></g><g class="ta-speck" style="--ta-delay:-4.53s;--ta-speed:5.89s"><circle cx="315.19" cy="710.61" r="5.18" fill="url(#titel-aura-aurora-10--point)" opacity=".35"/><circle cx="315.19" cy="710.61" r="0.65" fill="#f5dda4" opacity="0.24"/></g><g class="ta-speck" style="--ta-delay:-3.2s;--ta-speed:3.7s"><circle cx="829.2" cy="519.25" r="6.76" fill="url(#titel-aura-aurora-10--point)" opacity=".35"/><circle cx="829.2" cy="519.25" r="0.84" fill="#f5dda4" opacity="0.3"/></g><g class="ta-speck" style="--ta-delay:-3.85s;--ta-speed:3.59s"><circle cx="716.01" cy="341.19" r="7.11" fill="url(#titel-aura-aurora-10--point)" opacity=".35"/><circle cx="716.01" cy="341.19" r="0.89" fill="#f5dda4" opacity="0.57"/></g><g class="ta-speck" style="--ta-delay:-4.96s;--ta-speed:4.23s"><circle cx="410.62" cy="135.41" r="9.31" fill="url(#titel-aura-aurora-10--point)" opacity=".35"/><circle cx="410.62" cy="135.41" r="1.16" fill="#f5dda4" opacity="0.38"/></g><g class="ta-speck" style="--ta-delay:-3.82s;--ta-speed:6.88s"><circle cx="299.59" cy="777.79" r="4.95" fill="url(#titel-aura-aurora-10--point)" opacity=".35"/><circle cx="299.59" cy="777.79" r="0.62" fill="#f5dda4" opacity="0.3"/></g><g class="ta-speck" style="--ta-delay:-0.33s;--ta-speed:5.01s"><circle cx="456.02" cy="84.8" r="6.17" fill="url(#titel-aura-aurora-10--point)" opacity=".35"/><circle cx="456.02" cy="84.8" r="0.77" fill="#f5dda4" opacity="0.61"/></g><g class="ta-speck" style="--ta-delay:-0.14s;--ta-speed:4.21s"><circle cx="569.34" cy="829.68" r="5.14" fill="url(#titel-aura-aurora-10--point)" opacity=".35"/><circle cx="569.34" cy="829.68" r="0.64" fill="#f5dda4" opacity="0.34"/></g><g class="ta-speck" style="--ta-delay:-1.17s;--ta-speed:7.33s"><circle cx="207.36" cy="186.39" r="10.55" fill="url(#titel-aura-aurora-10--point)" opacity=".35"/><circle cx="207.36" cy="186.39" r="1.32" fill="#f5dda4" opacity="0.57"/></g><g class="ta-speck" style="--ta-delay:-5.41s;--ta-speed:4.55s"><circle cx="709.15" cy="318.4" r="7.8" fill="url(#titel-aura-aurora-10--point)" opacity=".35"/><circle cx="709.15" cy="318.4" r="0.98" fill="#f5dda4" opacity="0.62"/></g><g class="ta-speck" style="--ta-delay:-2.41s;--ta-speed:6.94s"><circle cx="839.62" cy="682.45" r="9" fill="url(#titel-aura-aurora-10--point)" opacity=".35"/><circle cx="839.62" cy="682.45" r="1.13" fill="#f5dda4" opacity="0.28"/></g><g class="ta-speck" style="--ta-delay:-1.13s;--ta-speed:7.44s"><circle cx="226.84" cy="235.83" r="6.7" fill="url(#titel-aura-aurora-10--point)" opacity=".35"/><circle cx="226.84" cy="235.83" r="0.84" fill="#f5dda4" opacity="0.67"/></g><g class="ta-speck" style="--ta-delay:-6.13s;--ta-speed:4.05s"><circle cx="685.67" cy="307.75" r="7.67" fill="url(#titel-aura-aurora-10--point)" opacity=".35"/><circle cx="685.67" cy="307.75" r="0.96" fill="#f5dda4" opacity="0.72"/></g><g class="ta-speck" style="--ta-delay:-1.69s;--ta-speed:7.9s"><circle cx="252.06" cy="384.65" r="8.97" fill="url(#titel-aura-aurora-10--point)" opacity=".35"/><circle cx="252.06" cy="384.65" r="1.12" fill="#f5dda4" opacity="0.53"/></g><g class="ta-speck" style="--ta-delay:-5.5s;--ta-speed:8.38s"><circle cx="905.86" cy="307.04" r="5.92" fill="url(#titel-aura-aurora-10--point)" opacity=".35"/><circle cx="905.86" cy="307.04" r="0.74" fill="#f5dda4" opacity="0.3"/></g><g class="ta-speck" style="--ta-delay:-6.3s;--ta-speed:6.47s"><circle cx="494.66" cy="140.88" r="8.75" fill="url(#titel-aura-aurora-10--point)" opacity=".35"/><circle cx="494.66" cy="140.88" r="1.09" fill="#f5dda4" opacity="0.3"/></g><g class="ta-speck" style="--ta-delay:-0.88s;--ta-speed:4.16s"><circle cx="412.35" cy="826.8" r="9.56" fill="url(#titel-aura-aurora-10--point)" opacity=".35"/><circle cx="412.35" cy="826.8" r="1.19" fill="#f5dda4" opacity="0.39"/></g><g class="ta-speck" style="--ta-delay:-7.04s;--ta-speed:4.15s"><circle cx="922.85" cy="645.37" r="6.88" fill="url(#titel-aura-aurora-10--point)" opacity=".35"/><circle cx="922.85" cy="645.37" r="0.86" fill="#f5dda4" opacity="0.62"/></g><g class="ta-speck" style="--ta-delay:-7.81s;--ta-speed:5.14s"><circle cx="725.35" cy="731.18" r="11.07" fill="url(#titel-aura-aurora-10--point)" opacity=".35"/><circle cx="725.35" cy="731.18" r="1.38" fill="#f5dda4" opacity="0.34"/></g><g class="ta-speck" style="--ta-delay:-4.75s;--ta-speed:7.43s"><circle cx="493.16" cy="839.61" r="10.91" fill="url(#titel-aura-aurora-10--point)" opacity=".35"/><circle cx="493.16" cy="839.61" r="1.36" fill="#f5dda4" opacity="0.7"/></g><g class="ta-speck" style="--ta-delay:-1.06s;--ta-speed:4.62s"><circle cx="449.94" cy="93.19" r="9.49" fill="url(#titel-aura-aurora-10--point)" opacity=".35"/><circle cx="449.94" cy="93.19" r="1.19" fill="#f5dda4" opacity="0.43"/></g><g class="ta-speck" style="--ta-delay:-1.05s;--ta-speed:8.22s"><circle cx="914.43" cy="473.44" r="8.65" fill="url(#titel-aura-aurora-10--point)" opacity=".35"/><circle cx="914.43" cy="473.44" r="1.08" fill="#f5dda4" opacity="0.26"/></g><g class="ta-speck" style="--ta-delay:-2.62s;--ta-speed:5.48s"><circle cx="84.85" cy="431.8" r="10.39" fill="url(#titel-aura-aurora-10--point)" opacity=".35"/><circle cx="84.85" cy="431.8" r="1.3" fill="#f5dda4" opacity="0.4"/></g><g class="ta-speck" style="--ta-delay:-0s;--ta-speed:7s"><circle cx="832.28" cy="628.88" r="17" fill="url(#titel-aura-aurora-10--point)" opacity=".5"/><path d="M832.28 620.88Q833.28 627.88 840.28 628.88Q833.28 629.88 832.28 636.88Q831.28 629.88 824.28 628.88Q831.28 627.88 832.28 620.88Z" fill="#fff2cf" opacity=".68"/></g><g class="ta-speck" style="--ta-delay:-1.6s;--ta-speed:7s"><circle cx="200.25" cy="692.8" r="17" fill="url(#titel-aura-aurora-10--point)" opacity=".5"/><path d="M200.25 684.8Q201.25 691.8 208.25 692.8Q201.25 693.8 200.25 700.8Q199.25 693.8 192.25 692.8Q199.25 691.8 200.25 684.8Z" fill="#fff2cf" opacity=".68"/></g><g class="ta-speck" style="--ta-delay:-3.2s;--ta-speed:7s"><circle cx="520.52" cy="144.19" r="17" fill="url(#titel-aura-aurora-10--point)" opacity=".5"/><path d="M520.52 136.19Q521.52 143.19 528.52 144.19Q521.52 145.19 520.52 152.19Q519.52 145.19 512.52 144.19Q519.52 143.19 520.52 136.19Z" fill="#fff2cf" opacity=".68"/></g><g class="ta-speck" style="--ta-delay:-4.800000000000001s;--ta-speed:7s"><circle cx="775.59" cy="725.99" r="17" fill="url(#titel-aura-aurora-10--point)" opacity=".5"/><path d="M775.59 717.99Q776.59 724.99 783.59 725.99Q776.59 726.99 775.59 733.99Q774.59 726.99 767.59 725.99Q774.59 724.99 775.59 717.99Z" fill="#fff2cf" opacity=".68"/></g></g></g></svg>
